<mxfile host="65bd71144e">
    <diagram id="r8uUDGejDX4jUI0QuQiA" name="Página-1">
        <mxGraphModel dx="883" dy="787" grid="1" gridSize="10" guides="1" tooltips="1" connect="1" arrows="1" fold="1" page="1" pageScale="1" pageWidth="827" pageHeight="1169" math="0" shadow="0">
            <root>
                <mxCell id="0"/>
                <mxCell id="1" parent="0"/>
                <mxCell id="7" value="Entorno" style="shape=umlFrame;whiteSpace=wrap;html=1;width=70;height=26;boundedLbl=1;verticalAlign=middle;align=left;spacingLeft=5;fontSize=10;" parent="1" vertex="1">
                    <mxGeometry x="380" y="310" width="170" height="164" as="geometry"/>
                </mxCell>
                <mxCell id="2" value="" style="image;html=1;image=img/lib/clip_art/networking/Router_Icon_128x128.png" parent="1" vertex="1">
                    <mxGeometry x="425" y="340" width="80" height="80" as="geometry"/>
                </mxCell>
                <mxCell id="3" value="" style="verticalLabelPosition=bottom;html=1;verticalAlign=top;align=center;strokeColor=none;fillColor=#00BEF2;shape=mxgraph.azure.queue_generic;pointerEvents=1;enumerate=0;treeMoving=0;" parent="1" vertex="1">
                    <mxGeometry x="435" y="420" width="60" height="20" as="geometry"/>
                </mxCell>
                <mxCell id="5" value="&lt;font style=&quot;font-size: 10px;&quot;&gt;x1&lt;/font&gt;" style="text;strokeColor=none;align=center;fillColor=none;html=1;verticalAlign=middle;whiteSpace=wrap;rounded=0;" parent="1" vertex="1">
                    <mxGeometry x="450" y="430" width="30" height="20" as="geometry"/>
                </mxCell>
                <mxCell id="8" value="Agente" style="shape=umlFrame;whiteSpace=wrap;html=1;width=120;height=30;boundedLbl=1;verticalAlign=middle;align=left;spacingLeft=5;" parent="1" vertex="1">
                    <mxGeometry x="540" y="380" width="340" height="180" as="geometry"/>
                </mxCell>
                <mxCell id="10" value="Simulador de paquetes" style="shape=umlFrame;whiteSpace=wrap;html=1;width=120;height=30;boundedLbl=1;verticalAlign=middle;align=left;spacingLeft=5;" parent="1" vertex="1">
                    <mxGeometry x="30" y="310" width="220" height="220" as="geometry"/>
                </mxCell>
                <mxCell id="11" value="LAN" style="shape=umlFrame;whiteSpace=wrap;html=1;width=120;height=30;boundedLbl=1;verticalAlign=middle;align=left;spacingLeft=5;" parent="1" vertex="1">
                    <mxGeometry x="390" y="210" width="340" height="180" as="geometry"/>
                </mxCell>
                <mxCell id="12" value="" style="image;html=1;image=img/lib/clip_art/computers/Laptop_128x128.png" parent="1" vertex="1">
                    <mxGeometry x="80" y="352" width="80" height="80" as="geometry"/>
                </mxCell>
                <mxCell id="13" value="" style="image;html=1;image=img/lib/clip_art/computers/Server_Rack_128x128.png" parent="1" vertex="1">
                    <mxGeometry x="90" y="432" width="80" height="80" as="geometry"/>
                </mxCell>
                <mxCell id="14" value="" style="endArrow=classic;html=1;exitX=1;exitY=0.5;exitDx=0;exitDy=0;entryX=0.001;entryY=0.499;entryDx=0;entryDy=0;entryPerimeter=0;" parent="1" source="13" target="7" edge="1">
                    <mxGeometry width="50" height="50" relative="1" as="geometry">
                        <mxPoint x="280" y="470" as="sourcePoint"/>
                        <mxPoint x="330" y="420" as="targetPoint"/>
                    </mxGeometry>
                </mxCell>
                <mxCell id="15" value="" style="endArrow=classic;html=1;exitX=1;exitY=0.5;exitDx=0;exitDy=0;entryX=-0.008;entryY=0.496;entryDx=0;entryDy=0;entryPerimeter=0;" parent="1" source="12" target="7" edge="1">
                    <mxGeometry width="50" height="50" relative="1" as="geometry">
                        <mxPoint x="180" y="482" as="sourcePoint"/>
                        <mxPoint x="390.1700000000001" y="401.8360000000001" as="targetPoint"/>
                    </mxGeometry>
                </mxCell>
            </root>
        </mxGraphModel>
    </diagram>
    <diagram id="h_Y3N2Y8BF9ajDIoLPKm" name="Flujo">
        <mxGraphModel dx="883" dy="1956" grid="1" gridSize="10" guides="1" tooltips="1" connect="1" arrows="1" fold="1" page="1" pageScale="1" pageWidth="827" pageHeight="1169" math="0" shadow="0">
            <root>
                <mxCell id="0"/>
                <mxCell id="1" parent="0"/>
                <mxCell id="Nr5bmqKj8QENGiJRbY6S-6" style="edgeStyle=none;html=1;entryX=0.5;entryY=0;entryDx=0;entryDy=0;entryPerimeter=0;" parent="1" source="Nr5bmqKj8QENGiJRbY6S-1" target="Nr5bmqKj8QENGiJRbY6S-33" edge="1">
                    <mxGeometry relative="1" as="geometry"/>
                </mxCell>
                <mxCell id="Nr5bmqKj8QENGiJRbY6S-1" value="Inicio" style="strokeWidth=2;html=1;shape=mxgraph.flowchart.start_1;whiteSpace=wrap;" parent="1" vertex="1">
                    <mxGeometry x="260" y="-71" width="100" height="60" as="geometry"/>
                </mxCell>
                <mxCell id="Nr5bmqKj8QENGiJRbY6S-2" value="Fin" style="strokeWidth=2;html=1;shape=mxgraph.flowchart.terminator;whiteSpace=wrap;" parent="1" vertex="1">
                    <mxGeometry x="270" y="1092" width="100" height="60" as="geometry"/>
                </mxCell>
                <mxCell id="Nr5bmqKj8QENGiJRbY6S-12" style="edgeStyle=orthogonalEdgeStyle;html=1;entryX=0.57;entryY=0;entryDx=0;entryDy=0;entryPerimeter=0;rounded=1;exitX=0;exitY=0.5;exitDx=0;exitDy=0;exitPerimeter=0;" parent="1" source="Nr5bmqKj8QENGiJRbY6S-3" target="Nr5bmqKj8QENGiJRbY6S-4" edge="1">
                    <mxGeometry relative="1" as="geometry"/>
                </mxCell>
                <mxCell id="Nr5bmqKj8QENGiJRbY6S-13" value="No" style="edgeLabel;html=1;align=center;verticalAlign=middle;resizable=0;points=[];" parent="Nr5bmqKj8QENGiJRbY6S-12" vertex="1" connectable="0">
                    <mxGeometry x="-0.1696" relative="1" as="geometry">
                        <mxPoint as="offset"/>
                    </mxGeometry>
                </mxCell>
                <mxCell id="Nr5bmqKj8QENGiJRbY6S-3" value="¿Generar &lt;br&gt;Maliciosos?" style="strokeWidth=2;html=1;shape=mxgraph.flowchart.decision;whiteSpace=wrap;" parent="1" vertex="1">
                    <mxGeometry x="260" y="221" width="100" height="100" as="geometry"/>
                </mxCell>
                <mxCell id="Nr5bmqKj8QENGiJRbY6S-16" style="edgeStyle=orthogonalEdgeStyle;rounded=1;html=1;entryX=0.5;entryY=0;entryDx=0;entryDy=0;entryPerimeter=0;" parent="1" source="Nr5bmqKj8QENGiJRbY6S-4" target="Nr5bmqKj8QENGiJRbY6S-19" edge="1">
                    <mxGeometry relative="1" as="geometry">
                        <mxPoint x="240" y="476" as="targetPoint"/>
                    </mxGeometry>
                </mxCell>
                <mxCell id="Nr5bmqKj8QENGiJRbY6S-4" value="Paquetes Normales" style="shape=parallelogram;html=1;strokeWidth=2;perimeter=parallelogramPerimeter;whiteSpace=wrap;rounded=1;arcSize=12;size=0.23;" parent="1" vertex="1">
                    <mxGeometry x="190" y="356" width="100" height="60" as="geometry"/>
                </mxCell>
                <mxCell id="Nr5bmqKj8QENGiJRbY6S-18" style="edgeStyle=orthogonalEdgeStyle;rounded=1;html=1;" parent="1" source="Nr5bmqKj8QENGiJRbY6S-7" target="Nr5bmqKj8QENGiJRbY6S-19" edge="1">
                    <mxGeometry relative="1" as="geometry">
                        <mxPoint x="180" y="520" as="targetPoint"/>
                    </mxGeometry>
                </mxCell>
                <mxCell id="Nr5bmqKj8QENGiJRbY6S-7" value="Paquetes&lt;br&gt;Maliciosos" style="shape=parallelogram;html=1;strokeWidth=2;perimeter=parallelogramPerimeter;whiteSpace=wrap;rounded=1;arcSize=12;size=0.23;" parent="1" vertex="1">
                    <mxGeometry x="340" y="356" width="100" height="60" as="geometry"/>
                </mxCell>
                <mxCell id="Nr5bmqKj8QENGiJRbY6S-14" style="edgeStyle=orthogonalEdgeStyle;html=1;entryX=0.5;entryY=0;entryDx=0;entryDy=0;rounded=1;exitX=1;exitY=0.5;exitDx=0;exitDy=0;exitPerimeter=0;" parent="1" source="Nr5bmqKj8QENGiJRbY6S-3" target="Nr5bmqKj8QENGiJRbY6S-7" edge="1">
                    <mxGeometry relative="1" as="geometry">
                        <mxPoint x="270" y="270" as="sourcePoint"/>
                        <mxPoint x="257.0000000000001" y="410" as="targetPoint"/>
                    </mxGeometry>
                </mxCell>
                <mxCell id="Nr5bmqKj8QENGiJRbY6S-15" value="Si" style="edgeLabel;html=1;align=center;verticalAlign=middle;resizable=0;points=[];" parent="Nr5bmqKj8QENGiJRbY6S-14" vertex="1" connectable="0">
                    <mxGeometry x="-0.1696" relative="1" as="geometry">
                        <mxPoint as="offset"/>
                    </mxGeometry>
                </mxCell>
                <mxCell id="Nr5bmqKj8QENGiJRbY6S-25" value="" style="edgeStyle=orthogonalEdgeStyle;rounded=1;html=1;" parent="1" source="Nr5bmqKj8QENGiJRbY6S-17" target="Nr5bmqKj8QENGiJRbY6S-24" edge="1">
                    <mxGeometry relative="1" as="geometry"/>
                </mxCell>
                <mxCell id="Nr5bmqKj8QENGiJRbY6S-17" value="Añade a la cola los paquetes" style="rounded=1;whiteSpace=wrap;html=1;absoluteArcSize=1;arcSize=14;strokeWidth=2;" parent="1" vertex="1">
                    <mxGeometry x="270" y="610" width="100" height="70" as="geometry"/>
                </mxCell>
                <mxCell id="Nr5bmqKj8QENGiJRbY6S-20" value="Si" style="edgeStyle=orthogonalEdgeStyle;rounded=1;html=1;entryX=0.5;entryY=0;entryDx=0;entryDy=0;" parent="1" source="Nr5bmqKj8QENGiJRbY6S-19" target="Nr5bmqKj8QENGiJRbY6S-17" edge="1">
                    <mxGeometry relative="1" as="geometry"/>
                </mxCell>
                <mxCell id="Nr5bmqKj8QENGiJRbY6S-21" value="No" style="edgeStyle=orthogonalEdgeStyle;rounded=1;html=1;entryX=0.5;entryY=0;entryDx=0;entryDy=0;" parent="1" source="Nr5bmqKj8QENGiJRbY6S-19" target="Nr5bmqKj8QENGiJRbY6S-22" edge="1">
                    <mxGeometry relative="1" as="geometry">
                        <mxPoint x="200" y="540" as="targetPoint"/>
                    </mxGeometry>
                </mxCell>
                <mxCell id="Nr5bmqKj8QENGiJRbY6S-19" value="Hay sitio suficiente en la cola" style="strokeWidth=2;html=1;shape=mxgraph.flowchart.decision;whiteSpace=wrap;" parent="1" vertex="1">
                    <mxGeometry x="270" y="470" width="100" height="100" as="geometry"/>
                </mxCell>
                <mxCell id="Nr5bmqKj8QENGiJRbY6S-23" style="edgeStyle=orthogonalEdgeStyle;rounded=1;html=1;" parent="1" source="Nr5bmqKj8QENGiJRbY6S-22" target="Nr5bmqKj8QENGiJRbY6S-17" edge="1">
                    <mxGeometry relative="1" as="geometry"/>
                </mxCell>
                <mxCell id="Nr5bmqKj8QENGiJRbY6S-22" value="Decarta los paquetes que no entran" style="rounded=1;whiteSpace=wrap;html=1;absoluteArcSize=1;arcSize=14;strokeWidth=2;" parent="1" vertex="1">
                    <mxGeometry x="110" y="610" width="100" height="70" as="geometry"/>
                </mxCell>
                <mxCell id="Nr5bmqKj8QENGiJRbY6S-28" value="" style="edgeStyle=orthogonalEdgeStyle;rounded=1;html=1;" parent="1" source="Nr5bmqKj8QENGiJRbY6S-24" target="Nr5bmqKj8QENGiJRbY6S-27" edge="1">
                    <mxGeometry relative="1" as="geometry"/>
                </mxCell>
                <mxCell id="Nr5bmqKj8QENGiJRbY6S-24" value="&lt;span style=&quot;font-family: Helvetica; font-size: 12px; font-style: normal; font-variant-ligatures: normal; font-variant-caps: normal; font-weight: 400; letter-spacing: normal; orphans: 2; text-align: center; text-indent: 0px; text-transform: none; widows: 2; word-spacing: 0px; -webkit-text-stroke-width: 0px; text-decoration-thickness: initial; text-decoration-style: initial; text-decoration-color: initial; float: none; display: inline !important;&quot;&gt;Procesa x MB de los paquetes de la cola&lt;/span&gt;" style="whiteSpace=wrap;html=1;rounded=1;arcSize=14;strokeWidth=2;fillColor=default;fontColor=#F0F0F0;" parent="1" vertex="1">
                    <mxGeometry x="260" y="720" width="120" height="60" as="geometry"/>
                </mxCell>
                <mxCell id="Nr5bmqKj8QENGiJRbY6S-30" style="edgeStyle=orthogonalEdgeStyle;rounded=1;html=1;entryX=0.5;entryY=0;entryDx=0;entryDy=0;entryPerimeter=0;" parent="1" source="Nr5bmqKj8QENGiJRbY6S-27" target="Nr5bmqKj8QENGiJRbY6S-29" edge="1">
                    <mxGeometry relative="1" as="geometry"/>
                </mxCell>
                <mxCell id="Nr5bmqKj8QENGiJRbY6S-27" value="Obtiene recompensa" style="whiteSpace=wrap;html=1;rounded=1;arcSize=14;strokeWidth=2;" parent="1" vertex="1">
                    <mxGeometry x="260" y="830" width="120" height="60" as="geometry"/>
                </mxCell>
                <mxCell id="Nr5bmqKj8QENGiJRbY6S-31" value="Si" style="edgeStyle=orthogonalEdgeStyle;rounded=1;html=1;" parent="1" source="Nr5bmqKj8QENGiJRbY6S-29" target="Nr5bmqKj8QENGiJRbY6S-2" edge="1">
                    <mxGeometry relative="1" as="geometry"/>
                </mxCell>
                <mxCell id="Nr5bmqKj8QENGiJRbY6S-32" value="No" style="edgeStyle=orthogonalEdgeStyle;rounded=1;html=1;entryX=1;entryY=0.5;entryDx=0;entryDy=0;entryPerimeter=0;exitX=1;exitY=0.5;exitDx=0;exitDy=0;exitPerimeter=0;" parent="1" source="Nr5bmqKj8QENGiJRbY6S-29" target="Nr5bmqKj8QENGiJRbY6S-33" edge="1">
                    <mxGeometry relative="1" as="geometry">
                        <mxPoint x="470" y="510" as="targetPoint"/>
                        <Array as="points">
                            <mxPoint x="470" y="980"/>
                            <mxPoint x="470" y="118"/>
                        </Array>
                    </mxGeometry>
                </mxCell>
                <mxCell id="Nr5bmqKj8QENGiJRbY6S-29" value="¿Ha terminado?" style="strokeWidth=2;html=1;shape=mxgraph.flowchart.decision;whiteSpace=wrap;" parent="1" vertex="1">
                    <mxGeometry x="270" y="930" width="100" height="100" as="geometry"/>
                </mxCell>
                <mxCell id="Nr5bmqKj8QENGiJRbY6S-34" value="Si" style="edgeStyle=orthogonalEdgeStyle;rounded=1;html=1;entryX=0.5;entryY=0;entryDx=0;entryDy=0;entryPerimeter=0;" parent="1" source="Nr5bmqKj8QENGiJRbY6S-33" target="Nr5bmqKj8QENGiJRbY6S-3" edge="1">
                    <mxGeometry relative="1" as="geometry"/>
                </mxCell>
                <mxCell id="Nr5bmqKj8QENGiJRbY6S-35" value="No" style="edgeStyle=orthogonalEdgeStyle;rounded=1;html=1;entryX=0;entryY=0.5;entryDx=0;entryDy=0;exitX=0;exitY=0.5;exitDx=0;exitDy=0;exitPerimeter=0;" parent="1" source="Nr5bmqKj8QENGiJRbY6S-33" target="Nr5bmqKj8QENGiJRbY6S-24" edge="1">
                    <mxGeometry relative="1" as="geometry">
                        <mxPoint x="140" y="460" as="targetPoint"/>
                        <Array as="points">
                            <mxPoint x="80" y="118"/>
                            <mxPoint x="80" y="750"/>
                        </Array>
                    </mxGeometry>
                </mxCell>
                <mxCell id="Nr5bmqKj8QENGiJRbY6S-33" value="¿Generar &lt;br&gt;Paquetes?" style="strokeWidth=2;html=1;shape=mxgraph.flowchart.decision;whiteSpace=wrap;" parent="1" vertex="1">
                    <mxGeometry x="260" y="68" width="100" height="100" as="geometry"/>
                </mxCell>
            </root>
        </mxGraphModel>
    </diagram>
</mxfile>